<?xml version="1.0" standalone="no"?>
<!DOCTYPE svg PUBLIC "-//W3C//DTD SVG 20010904//EN"
 "http://www.w3.org/TR/2001/REC-SVG-20010904/DTD/svg10.dtd">
<svg version="1.0" xmlns="http://www.w3.org/2000/svg"
 width="512.000000pt" height="512.000000pt" viewBox="0 0 512.000000 512.000000"
 preserveAspectRatio="xMidYMid meet">
<metadata>
Created by potrace 1.11, written by Peter Selinger 2001-2013
</metadata>
<g transform="translate(0.000000,512.000000) scale(0.100000,-0.100000)"
fill="#000000" stroke="none">
<path d="M1852 4260 c-111 -56 -209 -187 -261 -351 -24 -74 -51 -224 -51 -280
l0 -39 -387 0 c-422 0 -475 -5 -574 -55 -128 -64 -201 -142 -248 -264 l-26
-66 0 -1000 c-1 -983 0 -988 5 -261 l5 739 919 -927 919 -926 1126 0 c736 0
1141 4 1171 11 176 40 329 191 359 353 7 40 11 370 11 1015 0 1049 1 1020 -61
1143 -68 134 -186 219 -331 238 -40 5 -210 10 -378 10 l-305 0 -17 98 c-40
234 -132 414 -260 508 -117 86 -95 84 -872 84 l-683 0 -61 -30z m949 -983
c194 -50 345 -139 494 -291 143 -146 220 -282 270 -481 62 -244 35 -486 -80
-720 -145 -295 -411 -500 -735 -567 -78 -16 -121 -19 -245 -15 -222 7 -368 52
-544 168 -388 256 -564 731 -435 1177 114 392 451 687 860 752 102 16 307 4
415 -23z m1292 -261 c39 -16 82 -61 96 -99 20 -51 13 -126 -14 -173 -36 -61
-86 -89 -160 -89 -73 1 -115 21 -155 76 -68 94 -39 217 65 280 36 23 121 25
168 5z"/>
<path d="M2463 2949 c-188 -18 -378 -129 -487 -282 -54 -77 -78 -124 -108
-213 -20 -59 -23 -89 -23 -204 0 -122 3 -143 28 -215 100 -285 374 -485 667
-485 205 0 418 105 552 271 209 261 195 654 -33 903 -107 117 -279 208 -417
221 -31 3 -68 7 -82 9 -14 1 -57 -1 -97 -5z"/>
<path d="M311 1164 c0 -11 3 -14 6 -6 3 7 2 16 -1 19 -3 4 -6 -2 -5 -13z"/>
<path d="M321 1124 c0 -11 3 -14 6 -6 3 7 2 16 -1 19 -3 4 -6 -2 -5 -13z"/>
<path d="M330 1095 c0 -22 61 -113 102 -150 l43 -40 -42 45 c-23 25 -56 70
-72 100 -17 30 -31 51 -31 45z"/>
<path d="M560 860 c8 -5 22 -9 30 -9 10 0 8 3 -5 9 -27 12 -43 12 -25 0z"/>
<path d="M618 843 c7 -3 16 -2 19 1 4 3 -2 6 -13 5 -11 0 -14 -3 -6 -6z"/>
<path d="M663 833 c9 -2 25 -2 35 0 9 3 1 5 -18 5 -19 0 -27 -2 -17 -5z"/>
</g>
</svg>
